# xmcd
#
# Track frame offsets:
#	150
#	10553
#	23860
#	32793
#	48138
#	55742
#	70307
#	79693
#	90933
#	102001
#	117576
#	130889
#	143784
#	157824
#	168094
#	179421
#
# Disc length: 2565 seconds
#
# Revision: 0
# Processed by: cddbd v1.5.2PL0 Copyright (c) Steve Scherf et al.
# Submitted via: EasyCDDAExtractor 8.2.3.1
#
DISCID=bc0a0310
DTITLE=Bobby Atkins - We Do It For You_It Wouldn't Be The Same
DYEAR=2003
DGENRE=Country
TTITLE0=Your Old Love Letters
TTITLE1=New Patches
TTITLE2=Before I Met You
TTITLE3=We Do It For You
TTITLE4=I Walk The Line
TTITLE5=15 Years Ago
TTITLE6=Kiss An Angel Good Morning
TTITLE7=Tender Years
TTITLE8=Why Don't You Love Me
TTITLE9=It Wouldn't Be The Same
TTITLE10=Millers Cave
TTITLE11=Come Sundown
TTITLE12=The Fugitive
TTITLE13=Please Release Me
TTITLE14=Lonesome Whistle
TTITLE15=The Early Morning Rain
EXTD=
EXTT0=
EXTT1=
EXTT2=
EXTT3=
EXTT4=
EXTT5=
EXTT6=
EXTT7=
EXTT8=
EXTT9=
EXTT10=
EXTT11=
EXTT12=
EXTT13=
EXTT14=
EXTT15=
PLAYORDER=
